<?xml version="1.0" standalone="no"?>
<!DOCTYPE svg PUBLIC "-//W3C//DTD SVG 20010904//EN"
 "http://www.w3.org/TR/2001/REC-SVG-20010904/DTD/svg10.dtd">
<svg version="1.0" xmlns="http://www.w3.org/2000/svg"
 width="1518.000000pt" height="1792.000000pt" viewBox="0 0 1518.000000 1792.000000"
 preserveAspectRatio="xMidYMid meet">
<metadata>
Created by potrace 1.16, written by Peter Selinger 2001-2019
</metadata>
<g transform="translate(0.000000,1792.000000) scale(0.100000,-0.100000)"
fill="#000000" stroke="none">
<path d="M11450 17268 c-85 -55 -183 -117 -420 -268 -107 -68 -233 -148 -280
-179 -47 -30 -107 -69 -135 -86 -27 -18 -126 -81 -220 -140 -93 -59 -215 -136
-270 -172 -55 -35 -244 -156 -420 -268 -286 -182 -552 -351 -1075 -684 -91
-57 -212 -135 -270 -172 -95 -61 -139 -89 -305 -194 -27 -18 -174 -111 -325
-207 -151 -96 -408 -260 -570 -363 -162 -103 -317 -202 -345 -220 -27 -18
-151 -97 -275 -175 -219 -139 -267 -169 -380 -242 -30 -19 -156 -100 -280
-178 -124 -79 -254 -162 -290 -185 -36 -23 -149 -95 -252 -160 l-187 -119 -27
-61 c-15 -33 -48 -105 -74 -160 -26 -55 -106 -226 -178 -380 -71 -154 -210
-451 -307 -660 -98 -209 -191 -409 -208 -445 -16 -36 -81 -175 -145 -310 -63
-135 -121 -259 -128 -277 -7 -17 -34 -74 -58 -127 l-45 -96 -793 0 -793 0
-170 -277 c-93 -152 -209 -340 -256 -417 -47 -78 -108 -177 -136 -221 -27 -44
-100 -163 -163 -265 -108 -177 -253 -413 -440 -715 -47 -77 -95 -155 -106
-173 -10 -18 -53 -87 -95 -155 -141 -227 -364 -589 -399 -648 -19 -33 -77
-127 -128 -210 -50 -82 -92 -154 -92 -160 0 -5 385 -9 1025 -9 564 0 1025 -3
1025 -6 0 -5 -36 -84 -165 -359 -18 -38 -124 -266 -235 -505 -111 -239 -252
-540 -312 -669 -60 -128 -121 -259 -135 -290 -14 -31 -77 -166 -141 -301 -63
-135 -127 -272 -142 -305 -61 -133 -87 -190 -196 -423 -63 -133 -114 -247
-114 -252 0 -7 798 -9 2221 -8 l2220 3 136 290 c284 610 476 1022 505 1085 29
63 279 599 340 730 17 36 80 171 141 300 60 129 127 273 149 320 21 47 71 154
110 238 l71 152 174 0 c95 0 173 -2 173 -4 0 -3 -22 -51 -49 -108 -27 -57 -62
-132 -79 -168 -16 -36 -84 -182 -152 -325 -67 -143 -132 -282 -145 -310 -13
-27 -92 -196 -176 -375 -83 -179 -160 -343 -169 -365 -10 -22 -45 -98 -79
-168 -34 -70 -61 -129 -61 -131 0 -2 -64 -138 -141 -302 -78 -165 -165 -351
-194 -414 -29 -63 -136 -293 -237 -510 -102 -217 -197 -420 -211 -450 -14 -30
-96 -206 -182 -390 -87 -184 -169 -360 -182 -390 -14 -30 -105 -226 -203 -435
-98 -209 -192 -411 -210 -450 -18 -38 -133 -284 -255 -545 -123 -261 -268
-572 -323 -690 -55 -118 -114 -246 -132 -283 -18 -37 -30 -70 -27 -73 3 -3 32
12 66 33 234 146 1363 856 1426 897 28 18 86 55 130 83 44 27 168 105 275 173
107 67 238 150 290 183 52 33 111 70 130 82 19 12 132 83 250 157 419 264 795
500 830 523 39 25 492 311 810 510 113 71 234 147 270 170 36 24 118 76 183
116 65 41 213 134 330 208 117 73 239 150 272 170 56 35 531 334 730 460 50
32 138 88 196 124 l106 67 38 83 c21 45 102 219 180 387 78 168 156 334 172
370 67 145 325 698 343 735 36 75 332 710 350 750 9 22 86 186 169 365 84 179
162 345 173 370 45 98 320 688 343 735 28 59 300 643 340 730 15 33 94 202
175 375 81 173 158 338 170 365 12 28 89 192 170 365 81 173 159 340 173 370
40 88 158 341 242 520 42 91 91 194 107 230 42 91 303 651 340 730 17 36 91
196 165 355 75 160 214 457 309 661 96 204 174 376 174 383 0 8 -563 11 -2219
11 l-2219 0 -25 -52 c-45 -93 -248 -529 -302 -648 -44 -97 -155 -335 -312
-670 -45 -96 -61 -131 -236 -505 -79 -170 -159 -341 -176 -380 -18 -38 -73
-157 -123 -262 l-91 -193 -168 0 c-93 0 -169 3 -169 6 0 4 68 151 151 328 84
176 172 364 196 416 25 52 64 136 88 185 23 50 57 121 74 159 18 37 62 129 98
205 36 75 94 199 130 276 79 171 113 243 192 408 34 71 61 130 61 132 0 1 36
79 81 171 45 93 110 230 144 304 35 74 95 202 134 283 39 82 71 150 71 152 0
1 31 67 69 146 37 79 142 299 231 489 89 190 240 509 335 710 95 201 265 561
378 800 112 239 307 650 431 913 124 263 226 480 226 483 0 10 -19 1 -80 -38z
m-1419 -1710 c-27 -57 -108 -229 -181 -383 -73 -154 -145 -307 -160 -340 -15
-33 -49 -105 -75 -160 -26 -55 -62 -131 -80 -170 -18 -38 -74 -158 -125 -265
-51 -107 -184 -388 -295 -625 -112 -236 -453 -961 -760 -1610 -817 -1729 -875
-1854 -875 -1865 0 -7 275 -10 844 -10 l843 0 121 258 c66 141 137 293 157
337 41 88 366 785 590 1265 78 168 153 328 165 355 13 28 61 131 108 230 46
99 93 199 103 223 l18 42 1551 0 1550 0 -24 -52 c-13 -29 -59 -127 -101 -218
-42 -91 -90 -192 -105 -225 -15 -33 -92 -197 -170 -365 -175 -376 -414 -888
-680 -1460 -111 -239 -343 -736 -515 -1105 -172 -368 -374 -803 -450 -965
-160 -343 -142 -305 -373 -800 -297 -637 -572 -1227 -722 -1550 -78 -168 -227
-488 -332 -712 l-191 -408 -146 -92 c-389 -244 -728 -459 -846 -533 -103 -65
-922 -581 -1500 -945 -918 -578 -1331 -838 -1669 -1052 -120 -76 -221 -137
-223 -135 -3 3 83 194 172 382 62 131 348 742 430 920 51 110 242 520 425 910
183 391 345 737 360 770 15 33 108 233 207 445 99 212 226 482 281 600 55 118
153 328 217 465 64 138 130 277 145 310 51 110 166 357 320 685 84 179 159
340 166 358 l14 32 -849 0 -848 0 -27 -59 c-14 -32 -50 -110 -80 -172 -30 -63
-96 -206 -149 -319 -52 -113 -158 -340 -235 -505 -127 -273 -390 -837 -447
-960 -13 -27 -76 -162 -140 -300 -64 -137 -134 -288 -156 -335 -22 -47 -79
-170 -128 -275 l-89 -190 -1550 -3 -1551 -2 28 62 c16 35 124 268 241 518 117
250 286 615 377 810 91 195 231 495 310 665 80 171 157 335 171 365 13 30 92
198 173 373 82 175 149 320 149 323 0 2 -432 4 -961 4 -891 0 -961 1 -955 17
4 9 279 459 612 1001 333 542 608 991 611 999 4 10 153 13 826 15 l820 3 102
220 c101 220 244 527 505 1085 76 162 233 500 350 750 116 250 232 499 258
552 l47 98 630 401 c347 221 656 418 687 438 32 20 115 72 185 117 71 44 484
307 918 584 1598 1019 2010 1280 2017 1280 4 0 -15 -46 -41 -102z"/>
<path d="M9520 15113 c-74 -47 -256 -163 -405 -258 -650 -415 -761 -485 -1130
-720 -214 -136 -406 -257 -425 -270 -39 -25 -169 -108 -274 -176 -38 -24 -116
-73 -172 -109 -57 -36 -244 -155 -416 -264 -542 -345 -669 -427 -804 -512
l-130 -84 -109 -232 c-59 -128 -125 -269 -145 -313 -92 -197 -325 -697 -518
-1110 -115 -247 -239 -513 -275 -590 -36 -77 -86 -185 -112 -240 -25 -55 -65
-139 -87 -187 l-41 -88 -823 0 -822 0 -44 -72 c-52 -86 -754 -1226 -887 -1442
-51 -81 -95 -154 -98 -162 -4 -12 140 -14 939 -16 l945 -3 -91 -195 c-50 -108
-112 -240 -137 -295 -26 -55 -186 -399 -357 -765 -619 -1329 -862 -1851 -862
-1855 0 -3 613 -4 1362 -3 l1362 3 317 680 c550 1179 587 1258 630 1350 95
206 325 697 371 795 27 58 68 147 91 198 l41 92 1033 0 c580 0 1033 -4 1033
-9 0 -4 -55 -125 -121 -267 -130 -277 -241 -516 -294 -629 -18 -38 -112 -241
-210 -450 -98 -209 -193 -414 -212 -455 -20 -41 -101 -214 -181 -385 -80 -170
-173 -371 -207 -445 -34 -74 -209 -450 -390 -835 -180 -385 -371 -794 -425
-910 -53 -115 -168 -361 -255 -545 -87 -184 -164 -349 -171 -367 -8 -17 -41
-89 -74 -159 -33 -70 -59 -131 -58 -135 2 -5 118 64 258 153 140 88 377 237
525 331 149 93 293 184 320 201 28 18 124 79 215 136 91 56 181 113 200 125
59 38 312 198 880 555 300 188 568 357 595 375 28 17 156 99 285 180 612 385
570 356 595 405 12 25 81 171 153 325 125 271 341 733 483 1038 154 328 497
1065 574 1232 18 39 97 207 175 375 78 168 155 332 170 365 15 33 91 195 168
360 77 165 296 635 487 1045 191 410 421 905 512 1100 91 195 215 461 276 590
60 129 154 332 209 450 55 118 145 311 199 427 54 117 99 215 99 218 0 3 -613
4 -1362 3 l-1361 -3 -189 -405 c-104 -223 -247 -529 -318 -680 -147 -314 -498
-1069 -650 -1397 l-104 -223 -1033 0 c-638 0 -1033 4 -1033 9 0 6 30 72 66
148 37 76 84 176 106 223 65 138 103 219 153 325 26 55 62 132 80 170 18 39
53 114 79 168 79 167 131 276 213 452 44 94 104 220 133 280 80 169 113 238
328 695 110 234 336 713 502 1065 727 1539 800 1694 800 1701 0 11 -24 -2
-150 -83z"/>
</g>
</svg>
